<?xml version="1.0" encoding="iso-8859-1"?>
<!-- Generator: Adobe Illustrator 19.0.0, SVG Export Plug-In . SVG Version: 6.00 Build 0)  -->
<svg xmlns="http://www.w3.org/2000/svg" xmlns:xlink="http://www.w3.org/1999/xlink" version="1.1" id="Layer_1" x="0px" y="0px" viewBox="0 0 502 502" style="enable-background:new 0 0 502 502;" xml:space="preserve" width="32" height="32">
<g>
	<rect x="17.743" y="325.526" style="fill:#CCCCCC;" width="466.514" height="57.104"/>
	<g>
		<path style="fill:#FBB03B;" d="M464.9,119.37c-14.967,0-27.1,12.133-27.1,27.1c0,10.542,6.024,19.672,14.813,24.152    c-17.914,33.98-53.58,57.149-94.663,57.149c-41.083,0-76.749-23.169-94.663-57.149c8.79-4.481,14.813-13.61,14.813-24.152    c0-14.967-12.133-27.1-27.1-27.1s-27.1,12.133-27.1,27.1c0,10.542,6.024,19.672,14.813,24.152    c-17.914,33.98-53.58,57.149-94.663,57.149c-41.083,0-76.749-23.169-94.663-57.149c8.79-4.481,14.813-13.61,14.813-24.152    c0-14.967-12.133-27.1-27.1-27.1c-14.967,0-27.1,12.133-27.1,27.1c0,14.967,12.133,27.1,27.1,27.1v151.956H464.9V173.57    c14.967,0,27.1-12.133,27.1-27.1C492,131.503,479.867,119.37,464.9,119.37z"/>
		<path d="M484.257,315.526h-9.357V182.19C490.513,177.813,502,163.462,502,146.47c0-20.457-16.644-37.1-37.101-37.1    s-37.101,16.643-37.101,37.1c0,10.578,4.457,20.129,11.583,26.894c-17.286,26.699-47.327,44.407-81.432,44.407    c-34.106,0-64.152-17.704-81.439-44.402c7.13-6.765,11.589-16.318,11.589-26.899c0-20.457-16.644-37.1-37.101-37.1    s-37.101,16.643-37.101,37.1c0,10.581,4.46,20.134,11.589,26.899c-17.287,26.698-47.333,44.402-81.439,44.402    c-34.106,0-64.145-17.709-81.432-44.408c7.126-6.765,11.583-16.315,11.583-26.893c0-20.457-16.644-37.1-37.101-37.1    S0,126.013,0,146.47c0,16.992,11.487,31.343,27.101,35.72v133.336h-9.357c-5.522,0-10,4.477-10,10v57.104c0,5.523,4.478,10,10,10    h466.514c5.522,0,10-4.477,10-10v-57.104C494.257,320.003,489.779,315.526,484.257,315.526z M464.899,129.37    c9.43,0,17.101,7.671,17.101,17.1s-7.671,17.101-17.101,17.101s-17.101-7.671-17.101-17.101S455.47,129.37,464.899,129.37z     M251,129.37c9.43,0,17.101,7.671,17.101,17.1S260.43,163.57,251,163.57s-17.101-7.671-17.101-17.101S241.57,129.37,251,129.37z     M20,146.47c0-9.429,7.671-17.1,17.101-17.1s17.101,7.671,17.101,17.1S46.53,163.57,37.101,163.57S20,155.899,20,146.47z     M47.101,186.163c21.038,31.114,56.646,51.608,96.949,51.608c41.761,0,78.478-22.006,99.172-55.028    c2.51,0.538,5.11,0.827,7.778,0.827s5.268-0.289,7.778-0.827c20.694,33.021,57.412,55.028,99.172,55.028    c40.304,0,75.911-20.494,96.949-51.608v129.363H47.101V186.163z M474.257,372.63H27.743v-37.104h9.357h427.799h9.357V372.63z"/>
	</g>
	<g>
		<path d="M276.165,302.619h-10.646c-5.522,0-10-4.477-10-10s4.478-10,10-10h10.646c5.522,0,10,4.477,10,10    S281.688,302.619,276.165,302.619z"/>
	</g>
	<g>
		<path d="M231.643,302.619H71.943c-5.522,0-10-4.477-10-10s4.478-10,10-10h159.699c5.522,0,10,4.477,10,10    S237.165,302.619,231.643,302.619z"/>
	</g>
</g>
</svg>
